<svg xmlns="http://www.w3.org/2000/svg" style="display:none">
  <symbol id="nav-market" viewBox="0 0 24 24" fill="none" stroke="currentColor" stroke-width="1.7" stroke-linecap="round" stroke-linejoin="round">
    <path d="M4 18V6h16v12z"/><path d="m7 15 3-3 2 2 4-5 2 2"/>
  </symbol>
  <symbol id="nav-watchlist" viewBox="0 0 24 24" fill="none" stroke="currentColor" stroke-width="1.7" stroke-linecap="round" stroke-linejoin="round">
    <path d="M6 18V9M12 18V5M18 18v-6"/><path d="M4 18h16"/>
  </symbol>
  <symbol id="nav-opportunity" viewBox="0 0 24 24" fill="none" stroke="currentColor" stroke-width="1.7" stroke-linecap="round" stroke-linejoin="round">
    <path d="m13 2-8 11h6l-1 9 8-12h-6z"/><path d="M19 4v4M17 6h4"/>
  </symbol>
  <symbol id="nav-trade" viewBox="0 0 24 24" fill="none" stroke="currentColor" stroke-width="1.7" stroke-linecap="round" stroke-linejoin="round">
    <circle cx="12" cy="12" r="8.5"/><path d="M8.5 12h7"/>
  </symbol>
  <symbol id="nav-menu" viewBox="0 0 24 24" fill="none" stroke="currentColor" stroke-width="1.7" stroke-linecap="round">
    <path d="M4 6h16M4 12h16M4 18h16"/>
  </symbol>
  <symbol id="nav-back" viewBox="0 0 24 24" fill="none" stroke="currentColor" stroke-width="1.8" stroke-linecap="round" stroke-linejoin="round">
    <path d="m15 5-7 7 7 7M8 12h12"/>
  </symbol>
  <symbol id="search" viewBox="0 0 24 24" fill="none" stroke="currentColor" stroke-width="1.7" stroke-linecap="round" stroke-linejoin="round">
    <circle cx="10.8" cy="10.8" r="6.3"/><path d="m16 16 4.3 4.3"/>
  </symbol>
  <symbol id="settings" viewBox="0 0 24 24" fill="none" stroke="currentColor" stroke-width="1.7" stroke-linecap="round">
    <path d="M4 6h16M4 12h16M4 18h16"/><path d="M9 4v4M15 10v4M11 16v4"/>
  </symbol>
  <symbol id="add" viewBox="0 0 24 24" fill="none" stroke="currentColor" stroke-width="1.7" stroke-linecap="round">
    <circle cx="12" cy="12" r="8.5"/><path d="M12 8v8M8 12h8"/>
  </symbol>
  <symbol id="filter" viewBox="0 0 24 24" fill="none" stroke="currentColor" stroke-width="1.7" stroke-linecap="round">
    <path d="M4 6h16M7 12h10M10 18h4"/>
  </symbol>
  <symbol id="group" viewBox="0 0 24 24" fill="none" stroke="currentColor" stroke-width="1.7" stroke-linecap="round" stroke-linejoin="round">
    <path d="M4 5h16v14H4zM4 10h16M9 10v9"/>
  </symbol>
  <symbol id="sort" viewBox="0 0 24 24" fill="none" stroke="currentColor" stroke-width="1.6" stroke-linecap="round" stroke-linejoin="round">
    <path d="m8 5-3 3 3 3M5 8h9M16 19l3-3-3-3M19 16h-9"/>
  </symbol>
  <symbol id="more" viewBox="0 0 24 24" fill="currentColor">
    <circle cx="5" cy="12" r="1.5"/><circle cx="12" cy="12" r="1.5"/><circle cx="19" cy="12" r="1.5"/>
  </symbol>
  <symbol id="close" viewBox="0 0 24 24" fill="none" stroke="currentColor" stroke-width="1.8" stroke-linecap="round">
    <path d="m6 6 12 12M18 6 6 18"/>
  </symbol>
  <symbol id="check" viewBox="0 0 24 24" fill="none" stroke="currentColor" stroke-width="1.8" stroke-linecap="round" stroke-linejoin="round">
    <circle cx="12" cy="12" r="8.5"/><path d="m8 12 2.7 2.7L16.5 9"/>
  </symbol>
  <symbol id="wallet" viewBox="0 0 24 24" fill="none" stroke="currentColor" stroke-width="1.7" stroke-linecap="round" stroke-linejoin="round">
    <path d="M4 7.5A2.5 2.5 0 0 1 6.5 5H19v14H6.5A2.5 2.5 0 0 1 4 16.5z"/><path d="M4 8h13M16 11h3v4h-3a2 2 0 1 1 0-4Z"/>
  </symbol>
  <symbol id="position" viewBox="0 0 24 24" fill="none" stroke="currentColor" stroke-width="1.7" stroke-linecap="round" stroke-linejoin="round">
    <path d="M4 8h16v11H4zM8 8V6h8v2M4 12h16M10 12v3h4v-3"/>
  </symbol>
  <symbol id="monitoring" viewBox="0 0 24 24" fill="none" stroke="currentColor" stroke-width="1.7" stroke-linecap="round" stroke-linejoin="round">
    <path d="M18 9a6 6 0 0 0-12 0c0 7-3 7-3 9h18c0-2-3-2-3-9Z"/><path d="M10 21h4"/>
  </symbol>
  <symbol id="alert-triggered" viewBox="0 0 24 24" fill="none" stroke="currentColor" stroke-width="1.7" stroke-linecap="round" stroke-linejoin="round">
    <circle cx="12" cy="12" r="8.5"/><path d="M12 7v5M12 16h.01"/>
  </symbol>
  <symbol id="rule-active" viewBox="0 0 24 24" fill="none" stroke="currentColor" stroke-width="1.7" stroke-linecap="round" stroke-linejoin="round">
    <circle cx="12" cy="12" r="8.5"/><circle cx="12" cy="12" r="3" fill="currentColor" stroke="none"/>
  </symbol>
  <symbol id="rule-paused" viewBox="0 0 24 24" fill="none" stroke="currentColor" stroke-width="1.7" stroke-linecap="round" stroke-linejoin="round">
    <circle cx="12" cy="12" r="8.5"/><path d="M10 9v6M14 9v6"/>
  </symbol>
  <symbol id="message" viewBox="0 0 24 24" fill="none" stroke="currentColor" stroke-width="1.7" stroke-linecap="round" stroke-linejoin="round">
    <path d="M5 5h14v11H9l-4 3z"/>
  </symbol>
  <symbol id="trend-up" viewBox="0 0 24 24" fill="none" stroke="currentColor" stroke-width="1.7" stroke-linecap="round" stroke-linejoin="round">
    <path d="M4 17 10 11l4 3 6-7"/><path d="M16 7h4v4"/>
  </symbol>
  <symbol id="chevron-down" viewBox="0 0 24 24" fill="none" stroke="currentColor" stroke-width="1.7" stroke-linecap="round" stroke-linejoin="round">
    <path d="m6 9 6 6 6-6"/>
  </symbol>
</svg>
